<?xml version="1.0" standalone="no"?>
<!DOCTYPE svg PUBLIC "-//W3C//DTD SVG 20010904//EN"
 "http://www.w3.org/TR/2001/REC-SVG-20010904/DTD/svg10.dtd">
<svg version="1.0" xmlns="http://www.w3.org/2000/svg"
 width="3700.000000pt" height="3700.000000pt" viewBox="0 0 3700.000000 3700.000000"
 preserveAspectRatio="xMidYMid meet">
<metadata>
Created by potrace 1.14, written by Peter Selinger 2001-2017
</metadata>
<g transform="translate(0.000000,3700.000000) scale(0.100000,-0.100000)"
fill="#000000" stroke="none">
<path d="M18267 36044 c-2 -2 -75 -6 -163 -9 -87 -3 -184 -7 -214 -10 -30 -2
-98 -7 -150 -10 -52 -3 -115 -8 -140 -10 -25 -3 -79 -7 -120 -10 -70 -5 -111
-9 -220 -21 -25 -2 -68 -6 -96 -9 -57 -5 -136 -14 -174 -20 -14 -2 -50 -7 -80
-10 -30 -3 -116 -15 -190 -26 -74 -10 -151 -21 -170 -24 -20 -3 -45 -7 -56 -9
-12 -2 -45 -7 -75 -11 -30 -4 -56 -8 -59 -10 -3 -2 -26 -6 -50 -9 -25 -4 -56
-9 -70 -11 -14 -3 -36 -8 -50 -10 -14 -3 -50 -9 -80 -15 -57 -10 -64 -11 -195
-36 -89 -18 -310 -67 -515 -114 -146 -34 -236 -57 -490 -127 -168 -46 -185
-51 -420 -124 -74 -23 -139 -44 -145 -45 -20 -4 -394 -133 -520 -179 -209 -76
-569 -219 -735 -292 -19 -9 -53 -24 -75 -33 -60 -26 -229 -103 -320 -145 -115
-53 -503 -245 -620 -308 -214 -113 -300 -160 -310 -167 -5 -5 -37 -23 -70 -41
-482 -262 -1269 -790 -1770 -1188 -49 -39 -103 -81 -119 -94 -15 -12 -33 -27
-40 -32 -6 -6 -36 -30 -66 -55 -834 -677 -1678 -1555 -2352 -2445 -4 -5 -18
-23 -31 -40 -134 -171 -364 -504 -632 -915 -67 -103 -281 -458 -326 -540 -11
-19 -24 -42 -29 -50 -73 -114 -389 -725 -500 -965 -18 -38 -50 -107 -72 -153
-21 -46 -72 -161 -112 -255 -170 -395 -166 -386 -143 -388 15 -1 528 -1 543 0
6 1 24 31 39 69 16 37 43 99 61 137 17 39 46 104 64 145 93 212 423 877 460
925 4 6 23 39 42 75 48 90 77 140 213 372 158 268 516 810 703 1065 107 144
358 473 394 514 13 15 37 44 53 65 17 21 42 52 56 69 14 16 35 41 46 55 35 42
277 325 283 330 3 3 25 28 50 55 161 180 296 321 520 545 249 249 287 286 480
460 51 47 101 92 110 100 9 8 47 42 85 75 39 33 72 62 75 65 17 18 222 188
375 311 477 383 927 696 1535 1068 106 66 366 213 580 329 153 83 651 332 663
332 3 0 51 22 108 49 57 27 138 63 179 81 41 18 99 43 127 56 29 13 169 69
310 125 142 56 267 105 278 110 98 42 763 265 910 304 28 7 84 23 125 35 101
29 400 109 426 114 12 2 48 11 80 20 64 17 254 62 294 69 14 3 90 19 170 35
80 17 162 33 182 36 21 3 57 10 80 15 56 13 85 18 198 36 52 9 106 18 120 20
14 3 41 8 60 10 137 21 231 35 270 40 25 3 56 8 70 10 64 9 343 41 440 50 36
4 79 8 95 10 17 2 75 6 130 10 55 4 111 9 125 10 14 2 84 6 155 10 72 4 145 8
164 11 48 5 497 16 676 17 150 0 626 -12 720 -18 28 -2 95 -6 150 -10 55 -3
127 -8 160 -10 107 -7 209 -15 249 -20 21 -3 66 -7 100 -10 33 -3 77 -7 96
-10 19 -3 60 -7 90 -10 30 -3 73 -8 95 -10 22 -3 57 -8 78 -10 54 -7 118 -16
147 -20 14 -2 61 -9 105 -15 44 -6 91 -13 105 -15 14 -3 43 -7 65 -10 58 -9
164 -26 240 -40 22 -4 49 -9 60 -11 129 -24 169 -31 205 -39 34 -7 69 -14 105
-21 38 -6 150 -31 233 -50 155 -36 195 -45 312 -74 69 -17 133 -33 143 -35
117 -26 663 -187 832 -245 50 -17 97 -33 105 -35 80 -19 603 -216 865 -325
380 -158 908 -408 1204 -570 41 -22 93 -51 115 -63 149 -79 402 -227 656 -382
325 -198 993 -665 1240 -868 8 -6 71 -57 140 -112 147 -118 386 -319 468 -395
21 -19 58 -52 83 -73 228 -198 865 -834 1052 -1051 29 -33 120 -136 142 -160
11 -12 56 -64 100 -116 44 -52 82 -97 85 -100 8 -8 116 -141 227 -280 105
-132 321 -418 388 -515 22 -31 50 -70 62 -85 25 -30 398 -590 424 -636 9 -16
45 -74 79 -129 34 -55 71 -116 82 -135 11 -19 51 -87 89 -151 70 -119 95 -164
145 -259 16 -30 31 -57 34 -60 33 -33 397 -777 533 -1090 10 -25 30 -69 43
-98 13 -29 24 -56 24 -61 0 -5 6 -11 13 -13 10 -3 490 -2 549 1 14 1 7 26 -44
149 -146 357 -441 983 -601 1277 -24 44 -60 112 -81 150 -73 134 -110 200
-115 205 -3 3 -14 21 -25 40 -10 19 -66 115 -125 213 -58 98 -110 186 -116
195 -54 93 -286 444 -420 637 -113 162 -396 546 -457 620 -9 11 -67 83 -129
160 -62 77 -126 156 -143 176 -17 19 -49 57 -71 84 -97 117 -325 374 -480 540
-250 268 -631 641 -910 891 -133 119 -332 292 -380 329 -21 17 -46 37 -54 46
-51 51 -522 414 -751 579 -977 703 -2019 1269 -3150 1711 -208 82 -240 94
-545 200 -616 215 -1440 431 -2040 534 -41 7 -62 11 -105 20 -14 3 -65 11
-115 19 -145 23 -158 25 -190 31 -65 11 -92 15 -140 20 -27 3 -61 8 -75 10
-14 3 -47 7 -75 10 -27 3 -61 8 -75 10 -14 3 -52 7 -85 11 -33 3 -67 8 -76 9
-9 2 -52 6 -95 10 -43 4 -86 9 -95 10 -8 2 -55 6 -105 10 -49 4 -100 8 -114
10 -44 7 -215 19 -425 30 -71 4 -157 9 -190 11 -76 5 -1073 12 -1078 8z"/>
<path d="M18260 34162 l-45 -3 1 -77 c1 -42 5 -187 8 -322 3 -135 9 -364 12
-510 7 -313 11 -458 13 -483 1 -17 14 -18 254 -12 138 4 257 7 263 8 6 0 11 5
11 11 0 11 30 194 37 233 4 21 3 21 -137 20 l-142 -2 -1 35 c-2 32 -11 403
-19 755 -2 77 -4 187 -4 245 l-1 106 -102 -1 c-57 0 -123 -1 -148 -3z"/>
<path d="M19465 34144 c-56 -13 -102 -84 -109 -166 -6 -66 -15 -181 -21 -273
-3 -38 -7 -97 -10 -130 -2 -33 -7 -100 -10 -150 -3 -49 -8 -115 -10 -145 -35
-416 -29 -467 61 -513 44 -22 60 -25 324 -43 52 -3 98 -8 102 -10 3 -2 13 19
21 48 42 149 58 210 55 213 -2 2 -57 7 -123 11 -66 3 -127 8 -135 10 -8 1 -19
3 -23 3 -8 1 -3 124 8 241 2 20 6 81 10 135 3 55 8 127 11 160 3 33 7 94 9
135 10 172 21 220 45 205 4 -2 130 -11 240 -17 19 -1 31 3 27 10 -5 7 -10 51
-23 182 -4 36 -8 67 -10 69 -1 1 -20 4 -41 6 -203 17 -370 25 -398 19z"/>
<path d="M17607 34124 c-1 -1 -29 -5 -62 -8 -72 -8 -139 -17 -142 -19 0 -1 -4
-49 -8 -107 -3 -58 -8 -121 -10 -140 -2 -19 -7 -80 -10 -135 -4 -55 -8 -116
-10 -135 -2 -19 -6 -84 -10 -145 -3 -60 -8 -121 -10 -135 -2 -14 -7 -72 -10
-130 -3 -58 -7 -121 -10 -140 -2 -19 -6 -69 -9 -110 -3 -41 -8 -115 -12 -163
l-6 -88 38 5 c22 3 68 8 104 11 92 8 140 16 141 23 1 6 5 77 8 149 1 19 8 22
79 28 42 4 84 9 94 10 13 3 21 -15 38 -86 12 -49 25 -87 29 -85 3 2 38 7 76
10 39 4 79 8 90 11 11 2 40 4 64 4 42 1 43 2 39 29 -5 25 -51 185 -194 672
-30 102 -56 190 -57 195 -1 6 -34 117 -72 247 l-69 238 -49 -3 c-27 -1 -49 -3
-50 -3z m43 -694 c12 -52 33 -142 46 -199 14 -57 23 -105 20 -108 -2 -3 -22
-7 -43 -9 -21 -3 -46 -6 -55 -8 -10 -2 -18 1 -19 7 -1 19 7 315 11 427 2 42 2
43 10 15 4 -16 18 -73 30 -125z"/>
<path d="M20262 34049 c-57 -29 -77 -70 -97 -205 -9 -60 -27 -181 -40 -269
-13 -88 -26 -180 -30 -205 -3 -25 -8 -52 -10 -60 -2 -8 -6 -37 -10 -65 -3 -27
-10 -77 -15 -110 -5 -33 -12 -80 -15 -105 -3 -25 -8 -52 -11 -61 -10 -36 -12
-153 -2 -183 29 -86 80 -107 343 -142 28 -3 53 -8 56 -10 3 -2 47 -6 96 -10
83 -6 94 -5 132 17 49 27 86 96 95 174 3 28 8 59 10 71 2 12 7 45 11 75 4 30
8 56 10 59 2 3 6 36 10 74 3 38 8 72 10 75 1 3 6 31 10 61 3 30 8 62 10 70 2
8 7 35 10 60 3 25 8 56 10 70 2 14 7 45 10 70 6 42 17 117 30 202 22 136 22
177 0 221 -28 54 -79 83 -175 97 -41 6 -86 14 -100 16 -14 3 -47 7 -75 10 -27
3 -66 9 -85 13 -76 16 -144 12 -188 -10z m268 -254 c30 -4 59 -9 63 -12 8 -5
1 -118 -7 -132 -2 -3 -7 -31 -10 -62 -4 -31 -8 -65 -10 -75 -2 -11 -7 -41 -10
-69 -4 -27 -9 -57 -11 -65 -2 -8 -6 -37 -10 -65 -3 -27 -15 -111 -26 -185 -11
-74 -23 -153 -26 -175 -6 -46 -20 -78 -32 -71 -4 3 -32 8 -62 11 -30 4 -58 10
-63 15 -5 5 -2 55 8 122 10 62 19 124 21 138 2 14 6 43 10 65 11 74 56 380 60
410 2 17 7 48 11 70 4 22 7 44 6 48 -3 12 18 48 26 43 4 -2 32 -7 62 -11z"/>
<path d="M16898 34035 c-2 -2 -21 -6 -43 -9 -22 -3 -62 -11 -90 -16 -27 -5
-63 -12 -79 -14 -16 -3 -31 -7 -33 -10 -5 -5 1 -49 32 -216 8 -41 17 -91 19
-110 3 -19 8 -48 12 -65 10 -54 22 -130 20 -132 -1 -1 -19 37 -40 85 -22 48
-57 125 -78 172 -22 47 -55 121 -75 166 l-35 81 -66 -13 c-37 -8 -87 -16 -112
-20 -90 -13 -89 -12 -74 -101 8 -43 16 -91 19 -108 2 -16 11 -68 20 -115 9
-47 18 -94 19 -105 2 -11 6 -38 10 -60 3 -23 9 -52 11 -65 3 -14 10 -51 15
-82 6 -32 14 -84 20 -115 5 -32 12 -67 14 -78 2 -11 16 -87 30 -170 14 -82 28
-161 31 -175 3 -14 10 -52 16 -85 5 -33 12 -69 14 -80 2 -11 4 -30 4 -43 1
-21 5 -23 36 -18 165 27 230 42 228 53 -1 6 -5 24 -7 40 -3 15 -8 44 -11 63
-50 280 -74 424 -71 427 2 2 9 -11 17 -29 7 -18 30 -71 52 -118 21 -47 59
-130 84 -185 93 -207 79 -186 119 -179 20 3 46 8 58 10 11 2 35 7 51 9 90 16
139 25 141 27 2 3 -27 175 -72 428 -14 80 -28 156 -30 170 -2 14 -6 34 -9 46
-3 12 -7 37 -10 57 -4 20 -17 99 -31 174 -13 76 -26 150 -29 165 -5 35 -25
146 -31 178 -3 14 -7 41 -10 60 -11 77 -20 103 -36 106 -9 1 -18 1 -20 -1z"/>
<path d="M21382 33843 c-17 -41 -153 -355 -349 -813 -25 -58 -53 -123 -63
-145 -40 -89 -130 -302 -130 -307 0 -3 17 -9 38 -13 46 -10 39 -8 145 -34 49
-11 90 -21 91 -21 2 0 15 33 31 73 15 39 31 76 36 81 4 5 29 3 56 -3 26 -6 58
-13 71 -16 40 -7 62 -16 58 -23 -2 -4 -7 -44 -10 -88 l-7 -81 33 -6 c18 -4 80
-17 138 -31 58 -13 106 -23 107 -23 2 2 16 274 28 522 2 61 7 157 11 215 3 58
7 141 9 185 15 316 18 387 19 445 1 63 1 64 -29 71 -16 3 -81 18 -144 33 -62
14 -115 26 -116 26 -1 0 -11 -21 -23 -47z m38 -640 c-6 -65 -13 -129 -15 -143
-2 -14 -7 -61 -10 -105 -4 -44 -9 -83 -12 -88 -4 -7 -33 -3 -89 14 l-31 10 59
157 c33 86 68 179 79 206 10 27 19 56 19 64 0 8 3 13 6 10 3 -4 0 -59 -6 -125z"/>
<path d="M15820 33822 c-60 -10 -404 -104 -433 -118 -62 -32 -87 -72 -87 -138
0 -25 22 -133 50 -239 185 -711 222 -847 241 -885 46 -89 117 -104 284 -61 61
16 119 31 130 33 49 10 165 45 186 56 63 33 92 82 90 154 0 27 -25 142 -55
255 -110 417 -188 717 -192 739 -8 44 -37 117 -56 145 -32 45 -96 69 -158 59z
m-20 -455 c24 -94 45 -176 46 -182 1 -5 10 -37 19 -70 14 -52 36 -137 99 -380
9 -32 13 -62 8 -66 -11 -11 -132 -40 -141 -34 -5 2 -11 17 -14 32 -3 16 -7 37
-10 48 -25 93 -73 281 -112 430 -26 99 -57 219 -70 267 -26 96 -24 102 33 111
19 3 36 8 40 11 3 3 17 6 31 6 25 0 27 -5 71 -173z"/>
<path d="M22212 33653 c-13 -2 -40 -21 -60 -41 -30 -30 -44 -58 -72 -147 -19
-61 -35 -112 -35 -115 -1 -5 -58 -188 -105 -335 -16 -49 -45 -144 -65 -210
-21 -66 -44 -140 -52 -165 -41 -121 -50 -207 -27 -252 29 -57 79 -82 278 -143
82 -25 152 -48 156 -50 12 -7 26 11 65 85 21 41 47 90 57 109 11 18 17 35 14
38 -5 5 -151 54 -214 72 -24 7 -46 18 -48 26 -3 8 42 169 101 357 59 189 116
371 127 406 14 44 24 62 36 62 9 0 73 -18 141 -40 69 -22 125 -39 127 -37 1 1
4 31 8 67 6 65 15 135 21 178 2 12 2 22 0 22 -2 0 -83 25 -180 55 -175 55
-229 67 -273 58z"/>
<path d="M14740 33511 c-226 -78 -229 -80 -267 -126 -55 -66 -51 -86 94 -500
63 -178 74 -200 114 -221 42 -21 76 -18 190 21 57 19 109 35 116 35 12 0 23
-25 77 -185 26 -76 32 -103 23 -111 -7 -6 -76 -33 -154 -59 -79 -27 -143 -51
-143 -54 0 -4 27 -53 60 -109 33 -57 60 -108 60 -113 0 -5 2 -9 4 -9 25 0 399
139 424 157 77 58 85 112 37 258 -69 209 -154 444 -169 468 -19 28 -56 47 -94
47 -15 0 -77 -17 -137 -38 -61 -21 -115 -37 -122 -35 -15 5 -107 268 -100 286
3 8 75 38 161 67 86 30 156 56 156 59 0 3 -23 47 -51 96 -29 50 -57 100 -63
112 -6 13 -13 23 -16 22 -3 0 -93 -31 -200 -68z"/>
<path d="M22775 32993 c-98 -246 -215 -541 -260 -655 l-83 -207 32 -15 c78
-37 236 -94 241 -86 3 4 34 84 70 177 36 92 70 177 75 188 5 11 20 47 33 80
27 68 33 70 115 33 l50 -23 -54 -135 c-30 -74 -58 -142 -61 -150 -3 -8 -25
-64 -49 -125 l-42 -110 131 -52 c73 -29 135 -49 139 -45 3 4 39 88 78 187 39
99 78 194 86 212 7 17 14 34 14 38 0 4 6 21 14 38 35 80 319 804 320 816 1 8
-47 33 -129 65 l-130 53 -23 -51 c-13 -28 -37 -87 -53 -131 -17 -44 -36 -94
-44 -111 -7 -17 -32 -78 -54 -135 -23 -57 -45 -110 -49 -116 -6 -10 -24 -7
-74 13 -73 28 -71 24 -41 94 3 8 7 17 7 20 1 3 43 110 95 238 51 129 91 235
89 236 -2 1 -59 25 -128 52 -68 27 -127 50 -131 52 -4 2 -87 -199 -184 -445z"/>
<path d="M14000 33224 c-21 -8 -49 -19 -100 -42 -25 -11 -130 -57 -235 -102
-104 -46 -191 -84 -193 -85 -1 -1 13 -38 32 -81 19 -44 73 -169 121 -279 47
-110 96 -220 107 -245 11 -25 58 -130 103 -235 45 -104 108 -249 140 -322 l57
-132 32 13 c222 96 227 98 220 118 -3 11 -41 101 -85 201 -43 99 -79 184 -79
188 0 4 6 9 14 12 8 3 38 -25 77 -71 35 -43 69 -81 75 -87 6 -5 33 -37 60 -70
27 -33 62 -74 77 -91 l28 -32 102 45 c56 25 117 51 135 59 26 12 30 17 19 28
-7 7 -37 41 -67 76 -30 35 -62 70 -70 79 -9 9 -48 52 -88 97 l-72 81 36 38
c33 35 35 42 31 84 -3 30 -51 153 -137 351 -136 310 -162 360 -199 387 -22 15
-115 27 -141 17z m24 -387 c22 -50 52 -119 67 -152 73 -161 78 -174 66 -184
-24 -19 -131 -61 -137 -54 -4 5 -17 33 -30 63 -12 30 -33 78 -45 105 -37 81
-103 239 -107 254 -3 14 118 72 136 65 6 -3 29 -46 50 -97z"/>
<path d="M23826 32968 c-24 -51 -65 -138 -91 -193 -26 -55 -60 -127 -75 -160
-15 -33 -49 -105 -75 -160 -69 -147 -114 -242 -145 -310 -15 -33 -51 -109 -80
-170 -28 -60 -60 -128 -70 -150 l-19 -40 121 -57 c119 -58 148 -67 148 -49 0
6 23 59 51 118 28 59 101 214 161 343 61 129 131 278 155 330 58 122 117 248
155 329 16 36 38 82 49 103 l19 38 -62 29 c-35 16 -92 43 -127 60 -36 17 -66
31 -68 31 -2 0 -24 -42 -47 -92z"/>
<path d="M13135 32822 c-95 -52 -320 -171 -372 -197 -40 -21 -41 -23 -29 -46
41 -79 153 -291 176 -334 15 -27 65 -122 110 -210 46 -88 86 -164 90 -170 4
-5 38 -68 76 -140 37 -71 92 -175 122 -230 29 -55 56 -108 59 -117 8 -25 15
-23 107 26 44 24 135 71 201 106 66 34 134 71 151 81 l32 19 -34 105 c-19 57
-34 111 -34 119 0 8 -4 17 -10 21 -10 6 -27 -2 -171 -78 -50 -27 -92 -47 -93
-45 -16 19 -136 248 -136 259 0 4 45 31 100 60 l100 52 -56 106 c-31 58 -58
107 -59 109 -3 3 -173 -85 -191 -100 -8 -6 -20 6 -38 36 -14 25 -26 46 -26 49
0 2 -22 45 -50 96 -27 51 -50 95 -50 99 0 4 57 38 128 76 70 38 129 70 131 72
3 3 -44 71 -59 84 -3 3 -17 21 -32 40 -15 19 -37 47 -50 62 l-23 28 -70 -38z"/>
<path d="M24277 32687 c-91 -167 -136 -250 -182 -332 -18 -33 -46 -85 -63
-115 -16 -30 -41 -75 -54 -100 -118 -213 -287 -527 -290 -538 -2 -7 22 -27 52
-44 113 -64 162 -88 170 -83 7 5 39 62 198 355 44 81 72 127 72 119 0 -3 -14
-59 -31 -124 -17 -65 -32 -126 -34 -134 -2 -9 -19 -79 -39 -156 -19 -76 -34
-140 -32 -142 1 -1 59 -34 128 -71 l126 -69 136 251 c75 138 153 280 172 316
20 36 54 99 76 140 23 41 60 109 83 150 23 41 61 111 85 155 23 44 60 113 82
153 22 40 39 74 37 76 -2 2 -35 20 -74 41 -38 21 -94 51 -123 67 -29 17 -55
29 -56 27 -6 -7 -111 -197 -193 -351 -32 -60 -59 -104 -61 -100 -1 4 11 59 28
122 77 291 101 391 95 400 -4 6 -163 96 -225 127 -3 2 -40 -61 -83 -140z"/>
<path d="M12290 32358 c-89 -54 -384 -240 -413 -259 -5 -4 63 -121 151 -260
433 -691 575 -915 585 -926 9 -9 28 -2 82 33 39 25 91 58 117 74 l47 29 -77
123 c-43 68 -88 139 -100 160 l-22 36 37 23 c306 186 326 227 201 425 -18 29
-103 163 -188 299 -93 149 -168 257 -188 273 -21 16 -50 27 -80 29 -44 4 -55
0 -152 -59z m233 -467 c75 -121 137 -226 137 -233 0 -10 -80 -67 -121 -86 -6
-2 -135 191 -152 228 -4 8 -38 64 -77 124 l-69 109 62 38 c34 21 67 38 72 39
6 0 72 -99 148 -219z"/>
<path d="M25185 32271 c-41 -25 -65 -53 -121 -141 -26 -41 -90 -140 -142 -220
-127 -193 -266 -405 -334 -511 -121 -186 -112 -254 53 -364 164 -110 387 -255
391 -255 4 0 287 430 425 644 l22 34 -115 77 c-64 42 -117 75 -118 73 -2 -2
-32 -48 -68 -103 -36 -55 -96 -147 -134 -205 -38 -58 -74 -114 -80 -125 -14
-28 -32 -24 -91 19 l-52 37 60 92 c108 166 353 541 384 586 17 25 35 46 41 48
6 2 70 -35 143 -83 73 -47 134 -84 136 -83 1 2 25 58 52 125 l50 120 -175 115
c-97 62 -189 120 -205 127 -42 17 -87 15 -122 -7z"/>
<path d="M18537 31034 c-1 -1 -74 -5 -162 -9 -88 -3 -182 -8 -210 -10 -27 -2
-93 -6 -146 -10 -53 -3 -105 -7 -115 -9 -11 -2 -55 -7 -98 -11 -43 -4 -86 -8
-95 -10 -9 -1 -45 -6 -81 -10 -36 -3 -92 -10 -125 -15 -33 -5 -80 -12 -105
-15 -41 -6 -240 -39 -300 -51 -14 -2 -41 -7 -60 -10 -19 -3 -63 -12 -98 -20
-34 -7 -77 -16 -95 -19 -17 -4 -52 -11 -77 -16 -25 -6 -56 -13 -70 -15 -57
-11 -356 -89 -500 -131 -544 -158 -1009 -339 -1518 -590 l-213 -106 93 -49
c51 -27 204 -105 339 -173 l246 -123 44 20 c348 159 746 308 1114 418 146 44
548 149 625 164 14 2 57 11 95 19 39 9 90 18 115 22 24 4 47 8 50 10 3 2 23 6
45 9 22 4 65 11 95 16 30 5 69 11 85 14 50 7 119 18 135 21 8 1 40 6 70 10 30
3 66 8 80 10 22 3 77 9 180 20 291 32 474 40 890 40 333 0 564 -7 675 -20 17
-2 64 -7 105 -10 41 -3 91 -8 110 -10 19 -2 60 -7 90 -10 30 -3 66 -8 80 -10
14 -3 50 -7 80 -10 62 -7 49 -5 260 -40 85 -14 187 -32 225 -40 39 -8 81 -16
95 -18 54 -10 229 -49 305 -68 44 -12 87 -22 95 -24 32 -6 149 -38 230 -62 47
-13 92 -26 100 -28 31 -7 368 -118 445 -147 160 -60 371 -141 410 -159 22 -10
101 -45 175 -77 74 -33 170 -77 214 -97 95 -45 56 -59 382 137 131 79 250 151
264 159 59 35 64 31 -207 166 -142 71 -323 157 -403 192 -80 35 -159 69 -175
76 -232 104 -738 279 -1050 365 -44 12 -91 26 -105 30 -14 5 -38 11 -55 15
-16 4 -37 8 -45 10 -8 2 -53 13 -100 25 -94 24 -113 29 -150 36 -14 2 -31 7
-39 10 -8 2 -30 7 -50 10 -20 3 -49 9 -66 14 -16 4 -46 11 -65 14 -19 3 -46 8
-60 11 -14 3 -50 9 -80 15 -30 6 -64 12 -75 14 -11 2 -40 7 -65 11 -25 4 -52
9 -61 10 -45 9 -321 46 -431 59 -342 40 -639 57 -1041 60 -137 0 -249 0 -250
0z"/>
<path d="M10800 30996 c0 -2 41 -89 91 -192 50 -104 108 -225 129 -269 21 -44
79 -165 130 -270 51 -104 109 -226 130 -270 21 -44 79 -165 130 -270 51 -104
109 -226 130 -270 21 -44 79 -165 130 -270 51 -104 109 -226 130 -270 21 -44
72 -152 115 -240 43 -88 107 -221 143 -295 35 -74 101 -209 144 -300 44 -91
97 -201 118 -245 21 -44 79 -165 130 -270 51 -104 112 -233 137 -285 25 -52
81 -169 126 -260 44 -91 101 -210 127 -265 50 -105 139 -289 260 -540 40 -82
94 -195 120 -250 26 -55 81 -170 123 -255 100 -208 198 -411 262 -545 29 -60
88 -182 130 -270 91 -189 179 -371 265 -550 34 -71 67 -139 72 -149 10 -19 10
-19 -14 0 -53 42 -804 650 -823 665 -11 10 -74 61 -140 113 -66 53 -127 102
-135 109 -8 7 -61 49 -116 94 l-102 82 -88 -115 c-49 -64 -96 -124 -104 -134
-34 -42 -47 -58 -90 -115 -24 -33 -50 -66 -57 -75 -25 -31 -211 -269 -583
-750 -210 -272 -399 -515 -419 -540 -20 -25 -56 -72 -81 -105 -25 -33 -47 -62
-50 -65 -5 -4 -156 -200 -182 -235 -4 -5 -20 -26 -36 -45 -15 -19 -58 -73 -94
-120 l-66 -86 49 -94 c28 -52 102 -196 166 -320 64 -124 128 -247 143 -275 15
-27 64 -120 108 -205 184 -358 237 -459 277 -535 23 -44 82 -156 130 -250 48
-93 111 -215 140 -270 29 -55 87 -167 130 -250 43 -82 101 -195 130 -250 29
-55 89 -172 135 -260 45 -88 106 -205 135 -260 29 -55 87 -167 130 -250 74
-144 124 -239 254 -487 73 -141 218 -422 260 -505 18 -35 38 -66 45 -70 8 -5
53 -44 102 -89 49 -45 118 -107 154 -139 36 -31 72 -65 80 -74 8 -9 31 -29 50
-45 19 -16 73 -63 120 -106 47 -42 155 -139 240 -216 85 -76 157 -141 160
-144 3 -3 68 -61 145 -129 77 -69 145 -129 150 -135 6 -6 46 -42 90 -81 44
-38 84 -75 90 -81 5 -6 37 -35 70 -64 33 -29 100 -90 150 -134 49 -45 115
-103 145 -131 31 -27 80 -71 108 -97 29 -25 52 -41 52 -34 0 7 -23 124 -51
262 -28 137 -53 258 -55 269 -2 11 -11 54 -19 95 -22 107 -28 138 -41 205 -3
16 -12 61 -20 100 -9 38 -17 81 -20 95 -2 14 -7 36 -10 50 -3 14 -8 34 -10 45
-2 11 -31 155 -65 320 -33 165 -63 311 -65 325 -3 14 -12 59 -20 100 -9 41
-40 194 -70 340 -30 146 -57 278 -60 294 -2 16 -7 33 -10 38 -3 4 -1 8 3 8 5
0 24 -30 43 -67 19 -37 59 -113 88 -168 30 -55 81 -152 114 -215 34 -63 77
-146 98 -185 20 -38 61 -115 90 -170 29 -55 72 -136 95 -180 23 -44 71 -134
105 -200 34 -66 81 -154 103 -195 73 -137 114 -214 177 -335 35 -66 80 -151
100 -190 21 -38 61 -115 90 -170 29 -55 69 -131 90 -170 20 -38 65 -124 100
-190 35 -66 73 -139 86 -162 13 -23 26 -59 30 -80 4 -21 8 -47 11 -58 2 -11 6
-35 9 -54 3 -18 8 -43 10 -55 5 -27 34 -192 40 -231 5 -36 31 -180 44 -250 5
-27 19 -104 30 -170 11 -66 22 -129 24 -140 5 -26 56 -322 62 -360 2 -16 9
-52 14 -80 5 -27 12 -68 16 -90 3 -22 7 -47 9 -55 2 -8 7 -31 10 -50 3 -19 21
-123 40 -230 19 -107 36 -208 39 -225 13 -80 40 -235 51 -292 3 -16 8 -44 10
-63 3 -19 10 -55 15 -80 5 -25 11 -58 14 -75 6 -45 25 -156 31 -185 3 -14 14
-77 25 -140 11 -63 22 -124 24 -135 2 -11 7 -42 11 -70 5 -27 9 -52 10 -55 1
-3 5 -28 10 -56 l7 -51 37 9 c87 21 84 26 36 -59 -25 -43 -41 -81 -37 -84 4
-4 106 -44 227 -89 121 -45 231 -87 245 -92 136 -55 617 -234 622 -232 3 2 -1
30 -9 62 -8 31 -16 64 -18 72 -2 8 -13 53 -25 100 -12 47 -23 92 -25 100 -2 8
-43 170 -90 360 -48 190 -88 352 -90 360 -4 20 -95 380 -102 403 -4 17 -15 18
-131 13 -121 -6 -270 -13 -412 -21 -79 -4 -72 0 95 60 178 64 380 137 382 139
1 1 -9 51 -22 111 -34 157 -76 353 -81 383 -3 14 -11 51 -19 84 -15 66 -14 67
68 48 23 -5 175 -35 337 -65 162 -31 340 -65 395 -75 55 -11 149 -28 210 -40
60 -11 117 -22 125 -25 8 -2 33 -7 55 -10 22 -4 72 -13 110 -20 39 -8 81 -16
95 -19 14 -2 99 -18 190 -36 153 -29 211 -32 270 -15 8 2 29 7 45 9 17 3 91
17 165 31 74 15 146 28 160 31 14 3 57 11 95 19 39 8 81 16 95 18 14 3 66 12
115 22 50 9 101 19 115 21 38 7 382 73 490 94 52 11 109 21 126 24 17 3 66 13
110 21 43 9 98 18 122 21 42 6 42 6 33 -19 -5 -14 -22 -83 -36 -153 -15 -71
-28 -136 -30 -144 -12 -52 -65 -302 -65 -308 0 -10 20 -18 295 -117 132 -48
242 -88 244 -91 2 -2 -25 -2 -60 1 -163 10 -333 17 -434 19 l-110 1 -67 -265
c-37 -146 -72 -285 -78 -310 -6 -25 -58 -236 -116 -468 -58 -233 -104 -425
-102 -427 2 -2 239 87 528 197 289 109 530 200 535 201 6 2 17 7 26 12 15 9
12 19 -27 85 -24 41 -41 76 -36 78 4 1 29 -4 55 -12 54 -16 47 -25 67 89 6 33
12 71 15 85 13 74 45 260 50 290 3 19 10 58 15 85 5 28 12 66 15 85 3 19 12
71 20 115 8 44 17 94 19 110 4 26 11 67 41 240 3 17 10 53 15 80 5 28 12 66
15 85 3 19 7 46 10 60 3 14 7 41 10 60 3 19 8 42 10 50 2 8 6 33 10 55 3 22
16 101 29 175 14 74 28 153 31 175 4 22 8 45 9 50 2 6 6 33 10 60 11 68 75
437 91 515 2 13 7 40 10 60 3 20 7 47 10 60 3 13 7 40 10 60 3 20 8 47 10 60
3 14 23 131 46 260 46 266 57 320 68 335 5 5 39 69 76 140 37 72 84 162 105
200 20 39 63 120 95 180 32 61 74 142 95 180 21 39 63 120 95 180 32 61 72
137 90 170 18 33 60 114 95 180 34 66 100 190 145 275 45 85 110 209 145 275
34 66 75 143 90 170 15 28 60 113 100 190 40 77 80 154 90 170 9 17 50 93 90
170 40 77 75 142 78 145 5 5 -3 -43 -21 -125 -4 -16 -9 -41 -11 -55 -4 -19
-67 -332 -90 -445 -26 -124 -49 -235 -53 -255 -7 -38 -44 -223 -48 -240 -8
-36 -86 -418 -91 -445 -2 -16 -18 -93 -34 -170 -16 -77 -32 -153 -35 -170 -2
-16 -7 -39 -9 -50 -4 -21 -75 -365 -82 -400 -2 -11 -8 -42 -14 -70 -14 -74
-19 -95 -25 -116 -8 -25 5 -24 35 4 31 28 221 198 236 212 6 6 48 44 94 85
283 253 465 417 490 440 8 8 52 47 95 85 44 39 87 77 95 85 8 8 35 33 60 55
25 22 86 76 135 121 50 44 142 127 205 184 63 57 151 135 195 175 44 40 104
94 134 121 153 138 153 137 272 369 61 121 130 254 152 295 21 41 78 149 124
240 47 91 108 208 136 260 27 52 83 160 124 240 42 80 101 195 133 255 31 61
90 173 130 250 40 77 99 190 130 250 53 102 89 171 269 518 82 158 184 355
256 492 29 55 86 165 127 245 70 134 114 219 315 605 40 77 100 194 134 260
l62 121 -159 204 c-88 113 -171 221 -186 240 -63 82 -369 476 -381 490 -7 8
-50 65 -97 125 -47 61 -297 383 -556 717 l-471 606 -119 -96 c-66 -54 -137
-110 -158 -127 -21 -16 -50 -40 -64 -52 -15 -12 -106 -85 -202 -163 -96 -78
-184 -149 -195 -158 -11 -9 -113 -91 -225 -181 -113 -91 -207 -167 -210 -171
-15 -16 -152 -121 -154 -118 -2 1 25 62 59 133 35 72 98 202 140 290 43 88
103 214 135 280 32 66 92 192 135 280 111 230 200 414 260 540 49 103 82 170
265 550 40 83 94 195 120 250 26 55 83 174 127 265 44 91 99 206 123 255 24
50 88 182 143 295 54 113 117 243 139 290 23 47 76 157 118 245 43 88 102 212
133 275 30 63 90 187 132 275 43 88 99 205 125 260 26 55 85 177 130 270 45
94 106 220 135 280 29 61 84 175 123 255 66 137 116 241 270 560 35 74 88 185
117 245 29 61 92 191 140 290 48 99 105 218 127 265 22 47 49 102 59 122 l19
37 -48 -22 c-53 -26 -277 -138 -2067 -1037 -2856 -1434 -3366 -1690 -3382
-1700 -10 -5 -68 -34 -129 -64 l-111 -54 -72 24 c-40 13 -121 46 -180 73 -150
69 -520 178 -781 230 -30 6 -66 14 -80 16 -43 9 -183 33 -225 39 -23 4 -52 9
-65 11 -14 3 -51 8 -82 11 -31 3 -65 7 -75 9 -21 3 -115 14 -188 21 -284 26
-870 26 -1110 0 -16 -2 -61 -6 -100 -10 -38 -4 -81 -9 -95 -11 -14 -2 -47 -7
-74 -10 -27 -3 -59 -7 -70 -10 -12 -2 -39 -7 -61 -10 -40 -5 -127 -20 -175
-30 -14 -3 -37 -7 -53 -10 -56 -11 -163 -35 -195 -44 -18 -5 -36 -10 -40 -11
-115 -17 -536 -144 -750 -226 l-143 -55 -602 302 c-747 375 -2670 1340 -4064
2040 -579 291 -1053 527 -1053 525z m4657 -8463 c-28 -46 -217 -353 -248 -403
-142 -228 -262 -427 -266 -442 -4 -11 7 -23 34 -37 21 -12 220 -138 443 -281
519 -332 525 -336 590 -353 117 -32 316 -88 345 -98 29 -9 545 -155 650 -184
28 -8 154 -43 280 -80 127 -36 237 -68 245 -70 90 -22 376 -107 383 -114 6 -6
5 -28 -2 -58 -6 -26 -13 -57 -14 -68 -2 -11 -7 -31 -10 -45 -4 -14 -34 -153
-68 -310 -33 -157 -63 -294 -65 -305 -6 -27 -24 -114 -30 -145 -3 -14 -14 -64
-24 -112 -11 -49 -29 -127 -40 -175 -10 -49 -21 -99 -24 -113 -2 -14 -9 -45
-15 -70 -5 -25 -13 -61 -16 -80 -3 -19 -11 -53 -17 -75 -5 -22 -12 -51 -15
-65 -2 -14 -13 -68 -25 -120 -11 -52 -22 -106 -25 -120 -2 -14 -9 -43 -14 -64
-6 -21 -17 -71 -25 -110 -8 -39 -17 -81 -20 -94 -21 -96 -54 -252 -58 -275 -2
-15 -7 -35 -10 -45 -3 -9 -7 -28 -10 -42 -11 -60 -37 -174 -40 -177 -3 -4 -14
54 -22 115 -1 12 -7 46 -13 75 -6 28 -13 68 -16 87 -3 19 -8 42 -10 50 -2 8
-7 38 -10 65 -4 28 -11 70 -17 95 -5 25 -12 59 -14 75 -2 17 -6 41 -9 55 -3
14 -14 77 -25 140 -12 63 -23 126 -25 140 -3 14 -9 52 -15 85 -5 33 -12 69
-14 80 -2 11 -6 36 -10 55 -3 19 -8 46 -11 60 -3 13 -7 42 -11 64 -3 22 -7 43
-9 46 -1 3 -6 28 -10 55 -3 28 -17 109 -30 180 -13 72 -26 144 -29 160 -3 17
-10 57 -16 90 -6 33 -13 76 -16 95 -2 19 -11 67 -19 105 -8 39 -17 92 -21 120
-3 27 -10 60 -15 72 l-8 22 -663 0 -662 -1 -25 29 c-31 36 -72 84 -142 164
-31 35 -161 186 -289 334 -128 149 -236 272 -239 275 -3 3 -28 32 -56 65 -27
33 -54 65 -60 71 -5 6 -32 37 -60 69 -27 32 -55 63 -60 69 -6 6 -66 76 -135
156 -68 80 -157 183 -198 230 -41 47 -84 96 -96 110 -19 23 -132 152 -195 225
-14 17 -67 77 -116 135 -50 58 -92 107 -95 110 -3 3 -32 36 -65 75 -76 88
-113 130 -148 169 -16 17 -37 43 -48 58 -19 27 -18 26 63 -14 46 -22 128 -62
183 -88 55 -26 217 -105 360 -175 143 -70 301 -146 350 -170 50 -23 141 -68
204 -99 93 -46 117 -54 127 -44 7 7 55 74 108 148 52 74 101 143 108 152 7 9
89 125 182 257 93 133 171 241 173 241 2 0 2 -3 0 -7z m6880 -170 c65 -93 126
-179 136 -193 9 -14 36 -52 60 -85 24 -33 88 -123 142 -200 54 -77 101 -144
105 -148 7 -8 82 26 455 208 121 59 292 142 380 185 88 42 228 110 310 150 83
41 155 76 160 78 6 3 -2 -8 -16 -24 -14 -16 -54 -63 -90 -104 -35 -41 -66 -77
-69 -80 -3 -3 -32 -36 -65 -75 -33 -38 -62 -72 -65 -75 -3 -3 -61 -70 -129
-150 -69 -80 -143 -165 -165 -190 -23 -25 -63 -72 -91 -105 -27 -32 -54 -63
-60 -69 -5 -6 -50 -58 -100 -116 -49 -58 -94 -110 -100 -116 -15 -16 -275
-317 -335 -388 -14 -16 -32 -37 -40 -45 -8 -9 -53 -61 -100 -116 -47 -55 -87
-102 -90 -105 -3 -3 -64 -72 -135 -155 -110 -128 -258 -299 -343 -396 -12 -14
-28 -34 -35 -44 -13 -16 -53 -17 -680 -17 l-667 0 -5 -21 c-11 -53 -35 -186
-40 -227 -4 -24 -8 -47 -10 -50 -1 -3 -6 -27 -10 -55 -3 -27 -15 -95 -25 -150
-23 -121 -57 -317 -65 -371 -4 -21 -8 -46 -10 -54 -2 -8 -7 -31 -10 -50 -8
-52 -54 -311 -60 -340 -3 -14 -10 -52 -15 -85 -5 -33 -12 -71 -15 -85 -5 -27
-34 -192 -40 -230 -2 -14 -7 -38 -10 -55 -3 -16 -17 -95 -31 -175 -14 -80 -29
-163 -34 -184 -5 -22 -6 -45 -3 -50 4 -7 3 -8 -4 -1 -8 8 -28 83 -38 145 -3
14 -37 174 -60 278 -8 37 -17 78 -19 92 -3 14 -37 171 -76 350 -39 179 -73
336 -75 350 -2 14 -16 77 -30 140 -14 63 -30 135 -35 160 -29 144 -71 333 -74
339 -2 3 -7 23 -10 43 -3 21 -11 59 -17 85 -6 27 -13 59 -15 73 -3 13 -12 56
-20 95 -9 38 -18 81 -20 95 -3 14 -9 41 -14 60 -5 19 -11 46 -14 60 -2 14 -9
45 -15 70 -5 25 -13 61 -16 80 -3 19 -10 51 -14 70 -23 91 -23 87 7 93 15 2
83 21 152 41 69 20 132 38 140 40 16 4 566 161 1040 296 157 45 309 88 339 96
30 8 107 30 170 48 l116 34 490 312 c270 171 496 318 504 325 12 12 11 19 -10
47 -14 18 -34 49 -45 68 -17 29 -250 409 -415 678 -21 34 -37 62 -35 62 3 0
58 -75 123 -167z"/>
<path d="M11688 27717 c-9 -13 -23 -30 -30 -38 -24 -24 -199 -247 -294 -374
-239 -320 -472 -681 -664 -1030 -18 -33 -42 -76 -53 -95 -11 -19 -64 -123
-117 -230 -85 -170 -128 -259 -185 -385 -17 -37 -120 -285 -142 -340 -8 -22
-19 -49 -24 -60 -78 -182 -234 -665 -320 -989 -60 -228 -154 -663 -173 -806
-3 -19 -12 -73 -20 -120 -7 -47 -17 -110 -20 -141 -4 -31 -8 -65 -10 -75 -2
-11 -7 -48 -11 -84 -3 -36 -8 -76 -10 -90 -4 -26 -11 -102 -20 -205 -3 -33 -7
-82 -10 -110 -13 -153 -23 -378 -24 -540 l-1 -70 -655 1 c-361 1 -658 4 -662
7 -3 4 -7 162 -7 352 -1 296 -3 347 -16 355 -8 5 -106 10 -217 10 l-203 0 0
1574 c0 1565 0 1573 -20 1599 -11 14 -31 29 -43 33 -12 4 -281 7 -597 7 l-574
-1 -28 -31 -28 -31 0 -4111 c0 -2800 3 -4116 10 -4130 25 -46 31 -46 635 -46
334 0 579 4 591 9 11 5 28 22 37 38 16 26 17 150 17 1584 l0 1556 218 0 219 0
0 353 c0 195 2 358 5 363 6 9 1313 13 1321 4 3 -3 7 -70 11 -150 3 -80 8 -161
11 -180 3 -31 13 -137 20 -225 1 -16 5 -52 9 -80 3 -27 9 -72 12 -100 3 -27 7
-61 9 -75 2 -14 7 -52 10 -85 4 -33 8 -62 10 -65 2 -3 6 -28 9 -55 4 -28 8
-61 11 -75 3 -14 8 -41 11 -60 4 -19 8 -44 10 -55 2 -11 9 -49 15 -85 13 -83
74 -375 95 -454 9 -34 18 -71 20 -84 8 -41 73 -280 115 -419 118 -396 277
-821 449 -1198 37 -82 238 -483 268 -537 12 -21 38 -68 58 -105 169 -308 481
-785 713 -1087 276 -358 511 -625 836 -951 283 -282 550 -520 840 -745 39 -30
75 -58 80 -63 6 -4 33 -25 60 -45 28 -20 93 -68 145 -107 52 -38 102 -74 112
-80 31 -19 163 -110 168 -116 3 -3 10 -8 15 -10 6 -2 48 -29 95 -60 82 -54
342 -212 425 -259 395 -223 757 -397 1160 -558 98 -39 130 -51 290 -110 129
-47 246 -84 251 -79 4 4 -39 276 -51 317 -2 8 -7 35 -10 60 -4 25 -13 75 -21
112 -7 37 -16 80 -19 95 -20 102 0 86 -215 172 -107 43 -222 90 -255 105 -33
15 -73 32 -89 39 -70 29 -530 260 -620 311 -54 31 -100 56 -102 56 -7 0 -340
203 -371 226 -17 13 -34 24 -37 24 -12 0 -488 330 -506 350 -3 4 -43 35 -90
70 -88 66 -104 79 -280 226 -311 261 -626 565 -887 859 -94 106 -100 114 -177
205 -39 47 -73 87 -76 90 -12 10 -217 277 -265 344 -178 246 -321 459 -443
661 -58 97 -76 129 -130 225 -13 25 -39 70 -57 100 -49 85 -235 461 -295 595
-29 66 -61 139 -71 162 -11 23 -19 45 -19 48 0 3 -9 27 -21 52 -47 103 -168
435 -237 653 -50 158 -141 479 -157 560 -2 8 -10 42 -19 75 -8 33 -18 76 -21
95 -3 19 -8 43 -11 52 -3 9 -7 27 -9 40 -19 95 -25 126 -30 148 -3 14 -8 39
-10 55 -3 17 -10 55 -15 85 -5 30 -12 73 -16 95 -3 22 -12 82 -20 133 -8 52
-17 112 -20 135 -2 23 -6 56 -8 72 -3 17 -8 59 -11 95 -4 36 -9 79 -11 95 -2
17 -6 66 -10 110 -3 44 -8 100 -10 125 -25 311 -24 1115 1 1260 2 14 7 66 10
115 3 50 7 101 9 115 3 14 7 57 11 95 3 39 8 77 10 85 2 8 6 42 10 75 3 33 15
116 26 185 11 69 22 140 25 159 3 18 8 43 10 55 2 11 9 48 15 81 118 655 380
1461 672 2065 28 58 51 107 52 110 2 9 139 272 193 370 78 142 190 331 280
470 83 129 213 322 249 369 6 9 58 79 116 156 l103 140 -53 135 c-84 209 -194
468 -208 486 -10 14 -13 13 -27 -9z"/>
<path d="M25899 27598 c-23 -44 -73 -135 -186 -336 -64 -114 -110 -208 -107
-215 4 -7 55 -77 113 -157 83 -114 238 -340 322 -470 35 -55 149 -243 149
-246 0 -2 12 -23 26 -46 14 -22 60 -102 100 -177 399 -727 679 -1476 863
-2306 11 -49 22 -101 24 -115 6 -28 37 -194 43 -225 2 -10 6 -37 9 -60 3 -22
8 -51 11 -65 2 -14 6 -40 9 -58 2 -18 6 -45 9 -60 3 -15 8 -52 11 -82 3 -30 8
-66 10 -80 3 -14 7 -50 10 -80 3 -30 8 -68 10 -85 2 -16 7 -61 10 -100 3 -38
8 -90 10 -115 30 -331 34 -913 10 -1255 -19 -260 -34 -403 -69 -670 -4 -30
-50 -305 -60 -360 -237 -1279 -803 -2554 -1596 -3594 -41 -54 -86 -113 -100
-131 -25 -34 -226 -276 -245 -296 -5 -6 -30 -34 -54 -62 -160 -189 -544 -574
-791 -792 -14 -13 -77 -66 -140 -119 -63 -53 -117 -98 -120 -102 -7 -7 -293
-226 -353 -269 -27 -19 -60 -45 -75 -56 -104 -82 -588 -388 -797 -504 -306
-171 -837 -422 -1057 -501 -21 -7 -39 -17 -39 -21 -1 -4 -2 -11 -3 -15 -1 -5
-5 -30 -10 -56 -4 -27 -9 -58 -11 -69 -2 -11 -14 -77 -25 -146 -12 -70 -23
-138 -26 -152 -10 -61 -15 -87 -19 -110 -6 -27 -12 -58 -21 -108 -6 -31 -5
-32 17 -23 13 6 103 39 199 74 158 58 355 136 435 172 258 115 344 155 475
220 134 67 248 127 415 220 216 120 624 376 633 398 2 4 8 7 12 7 7 0 109 69
215 146 76 55 281 208 285 213 3 4 25 22 50 41 52 40 266 217 325 269 171 151
250 225 466 441 135 135 285 290 335 345 49 55 91 102 94 105 4 4 53 62 127
150 265 314 567 730 780 1075 425 688 752 1415 986 2195 50 164 135 488 157
595 4 22 15 72 23 110 28 127 64 320 92 495 11 69 35 241 40 290 3 30 8 66 10
80 2 14 7 52 10 85 3 33 8 83 11 110 6 58 11 121 20 260 3 55 7 116 9 135 1
19 3 49 4 65 l1 30 689 0 c379 0 693 -3 697 -8 4 -4 7 -167 7 -362 l0 -355
218 0 219 0 2 -1568 c3 -1697 -1 -1581 53 -1609 13 -7 222 -10 590 -10 617 0
615 -1 635 53 6 16 10 1542 10 4133 l0 4107 -29 28 -30 29 -553 -1 c-304 -1
-568 -1 -586 -1 -23 -1 -43 -10 -63 -30 l-29 -29 0 -1576 0 -1576 -204 0
c-165 0 -207 -3 -219 -14 -12 -13 -15 -70 -15 -338 0 -178 -1 -334 -1 -348
l-1 -25 -685 1 c-377 0 -688 4 -692 8 -4 3 -8 44 -9 89 -4 138 -15 380 -18
417 -2 19 -7 80 -10 135 -4 55 -9 114 -11 130 -2 17 -7 59 -10 95 -3 36 -8 79
-10 95 -2 17 -6 50 -9 75 -11 91 -18 138 -37 260 -11 69 -22 141 -25 160 -17
111 -100 504 -144 680 -74 295 -243 841 -299 965 -5 11 -28 70 -51 130 -41
111 -46 121 -73 185 -8 19 -28 67 -45 105 -16 39 -44 104 -63 145 -44 99 -265
540 -330 660 -150 274 -429 711 -623 975 -113 153 -289 375 -297 375 -5 0 -14
-10 -20 -22z"/>
<path d="M3622 25879 c-38 -8 -70 -31 -93 -66 -18 -27 -19 -94 -19 -1742 0
-943 -2 -1716 -4 -1719 -3 -2 -198 -4 -435 -4 -459 1 -445 2 -470 -46 -4 -9
-9 -241 -9 -516 l-1 -498 28 -28 28 -28 419 -1 c230 0 425 0 432 -1 9 0 12
-366 12 -1795 0 -1979 -5 -1829 62 -1877 l33 -23 525 -1 c586 -1 582 -1 622
65 l23 36 1 4070 c0 3995 0 4071 -19 4106 -39 74 -19 72 -593 73 -282 1 -526
-2 -542 -5z"/>
<path d="M32939 25879 c-45 -7 -73 -26 -95 -63 -18 -30 -19 -162 -19 -4096 -1
-2636 2 -4075 9 -4095 13 -39 34 -61 76 -78 48 -19 1073 -18 1107 1 13 7 34
29 48 50 l25 37 0 1797 0 1798 53 1 c28 0 222 0 431 0 l378 0 29 28 28 28 0
503 -1 503 -28 28 -28 28 -413 0 c-228 0 -422 0 -431 0 -17 1 -18 89 -18 1712
0 1902 5 1755 -67 1800 -35 22 -41 22 -543 23 -279 1 -522 -2 -541 -5z"/>
<path d="M5062 25863 c-38 -13 -36 -11 -51 -40 -15 -29 -16 -8225 -1 -8254 25
-46 31 -46 635 -46 618 0 612 -1 633 54 8 20 11 1170 11 4132 l0 4104 -29 28
c-16 16 -34 29 -42 30 -7 0 -263 1 -568 2 -398 1 -564 -1 -588 -10z"/>
<path d="M31382 25868 c-16 -4 -37 -17 -48 -29 -19 -21 -19 -94 -21 -4132 -1
-3488 1 -4115 13 -4138 7 -15 26 -31 41 -36 17 -6 259 -10 605 -9 l577 1 23
23 23 23 3 4120 2 4120 -29 30 c-26 25 -37 29 -88 30 -301 5 -1079 2 -1101 -3z"/>
<path d="M5601 16290 c-19 -5 -17 -11 25 -110 25 -58 51 -119 59 -136 8 -16
27 -59 43 -95 16 -36 47 -103 68 -150 48 -104 298 -605 357 -715 96 -178 178
-324 236 -422 34 -57 61 -106 61 -109 0 -4 11 -21 25 -39 14 -18 30 -43 35
-56 6 -13 18 -35 28 -50 21 -33 133 -212 147 -236 117 -195 476 -711 683 -982
93 -121 419 -530 431 -540 4 -3 44 -50 91 -105 46 -55 100 -118 120 -139 19
-21 40 -44 45 -50 85 -94 193 -215 245 -271 103 -112 625 -631 738 -735 57
-52 118 -108 136 -125 47 -43 87 -78 211 -185 61 -52 112 -97 115 -100 10 -11
297 -247 340 -280 25 -19 47 -37 50 -40 12 -12 197 -155 340 -261 371 -275
795 -559 1175 -786 363 -217 592 -341 1010 -547 299 -148 346 -170 465 -223
30 -14 69 -31 85 -38 17 -8 80 -35 140 -60 61 -26 124 -53 140 -61 36 -16 308
-124 420 -166 651 -247 1454 -485 2040 -604 11 -2 29 -6 40 -8 67 -15 431 -87
485 -95 36 -6 74 -13 85 -15 11 -2 40 -7 65 -11 25 -4 52 -8 60 -10 8 -1 37
-6 63 -9 27 -4 57 -9 66 -11 10 -2 42 -6 71 -10 29 -4 62 -9 74 -11 12 -2 41
-6 65 -9 24 -3 58 -7 75 -10 17 -2 54 -7 81 -10 28 -3 64 -8 80 -10 35 -5 96
-12 180 -20 33 -3 78 -8 100 -10 22 -3 72 -8 110 -10 39 -3 88 -7 110 -10 22
-2 76 -7 120 -10 44 -3 118 -8 165 -11 145 -10 188 -12 405 -20 372 -13 926
-8 1295 11 177 10 277 16 300 20 14 2 70 6 125 10 55 4 106 8 115 10 8 1 55 6
104 10 50 4 98 8 107 10 10 2 50 7 90 10 40 4 82 9 93 11 12 2 44 6 71 9 73 8
128 15 145 20 8 2 46 7 85 10 38 4 72 8 75 10 3 2 29 6 59 10 30 4 62 8 72 10
9 2 39 7 66 11 26 5 50 9 53 9 3 1 32 5 65 10 33 5 62 9 65 10 3 1 19 4 35 8
17 3 82 16 145 27 105 19 243 46 280 55 8 2 58 13 110 24 52 11 136 29 185 41
50 12 99 23 110 26 37 7 301 76 465 120 369 101 835 252 1215 396 149 56 410
159 452 179 24 10 45 19 48 19 2 0 30 12 62 26 68 30 105 46 153 67 331 143
815 382 1180 585 471 261 956 568 1371 867 45 33 99 71 118 85 263 185 864
673 1120 909 16 14 71 65 122 112 161 148 179 165 384 368 232 230 548 563
665 701 11 14 31 36 44 50 180 198 612 739 817 1025 35 49 74 103 86 120 62
85 420 626 483 730 40 66 83 136 95 155 26 41 188 320 232 400 36 65 79 143
123 225 53 97 251 490 307 610 129 273 266 586 259 592 -5 6 -566 7 -570 2 -2
-2 -21 -44 -44 -94 -127 -285 -331 -696 -465 -937 -19 -35 -48 -88 -65 -118
-16 -30 -46 -82 -65 -115 -19 -33 -52 -92 -75 -131 -45 -79 -256 -425 -274
-449 -4 -5 -93 -138 -198 -295 -157 -235 -342 -497 -402 -570 -7 -9 -40 -52
-73 -95 -156 -208 -533 -665 -684 -829 -20 -21 -47 -50 -60 -65 -140 -155
-273 -293 -466 -486 -231 -231 -287 -285 -469 -450 -55 -50 -104 -95 -110
-101 -36 -34 -328 -283 -416 -354 -58 -47 -114 -92 -125 -102 -11 -9 -60 -48
-110 -87 -49 -39 -95 -75 -100 -79 -70 -57 -556 -412 -613 -447 -9 -6 -116
-76 -237 -156 -290 -192 -837 -522 -904 -546 -9 -4 -27 -14 -41 -23 -48 -33
-524 -277 -695 -357 -50 -23 -134 -62 -188 -87 -54 -25 -99 -46 -101 -46 -3 0
-37 -15 -78 -34 -429 -199 -1173 -467 -1744 -630 -221 -63 -676 -179 -741
-189 -17 -3 -35 -7 -40 -10 -4 -3 -24 -8 -43 -11 -19 -3 -64 -12 -100 -20 -36
-8 -78 -17 -95 -20 -16 -2 -88 -16 -160 -30 -116 -23 -254 -48 -340 -62 -16
-2 -41 -6 -55 -9 -14 -2 -41 -6 -60 -9 -86 -13 -117 -17 -140 -21 -14 -3 -47
-7 -75 -10 -27 -4 -57 -8 -65 -10 -8 -2 -46 -7 -85 -11 -38 -3 -72 -8 -75 -9
-3 -2 -34 -6 -70 -10 -36 -3 -81 -8 -100 -11 -19 -2 -60 -7 -90 -9 -30 -3 -71
-7 -90 -10 -19 -2 -69 -7 -110 -10 -41 -3 -97 -8 -125 -10 -386 -31 -632 -40
-1130 -39 -385 0 -505 3 -790 18 -99 6 -285 20 -400 31 -27 2 -81 7 -120 10
-38 3 -86 8 -106 11 -20 3 -59 7 -85 10 -91 9 -368 44 -469 60 -55 8 -111 17
-125 19 -63 9 -117 18 -135 21 -11 2 -47 9 -80 14 -57 9 -76 13 -135 25 -14 2
-39 7 -57 10 -157 25 -542 110 -798 175 -110 28 -208 53 -219 55 -10 2 -42 11
-70 19 -28 8 -76 22 -106 30 -363 96 -1219 392 -1505 521 -16 7 -88 38 -160
68 -363 153 -929 431 -1245 610 -19 11 -60 33 -90 50 -30 16 -59 33 -65 37 -5
4 -28 18 -50 30 -22 13 -59 33 -82 46 -220 125 -706 439 -1005 651 -233 164
-660 492 -799 612 -19 16 -99 84 -179 152 -80 67 -147 125 -150 128 -3 3 -25
24 -50 45 -333 289 -852 809 -1155 1155 -17 19 -35 39 -40 45 -6 6 -41 47 -79
91 -37 44 -78 91 -90 105 -37 40 -116 136 -235 286 -62 76 -119 147 -127 157
-33 41 -286 381 -365 492 -85 117 -368 540 -420 626 -15 24 -68 112 -119 194
-51 83 -102 168 -115 190 -12 22 -32 58 -45 80 -12 22 -26 45 -30 50 -4 6 -21
35 -37 65 -17 30 -41 75 -55 100 -110 196 -298 563 -376 730 -16 36 -50 108
-74 160 -25 52 -57 123 -73 158 -24 53 -32 62 -54 63 -145 3 -514 3 -530 -1z"/>
<path d="M27412 15243 c-17 -21 -70 -85 -117 -141 -47 -57 -85 -107 -85 -112
0 -4 55 -53 123 -108 67 -55 132 -108 143 -118 12 -11 76 -63 143 -118 67 -54
120 -100 118 -102 -2 -2 -36 11 -75 31 -39 19 -73 35 -75 35 -3 0 -71 32 -153
71 -82 39 -171 81 -199 94 -27 12 -72 33 -99 45 l-49 24 -30 -35 c-16 -19 -63
-77 -105 -129 -42 -52 -81 -98 -87 -102 -12 -9 -30 7 205 -184 107 -87 204
-166 215 -176 11 -9 139 -114 285 -233 146 -119 283 -232 305 -250 175 -143
307 -252 344 -283 78 -66 81 -67 96 -46 7 11 25 33 40 49 62 70 160 198 156
204 -4 5 -80 68 -296 246 -237 194 -286 236 -260 223 6 -3 35 -17 65 -31 30
-14 154 -71 275 -127 387 -180 345 -164 364 -143 9 10 57 68 106 128 49 61 98
119 108 130 15 16 15 21 4 30 -7 5 -186 152 -397 325 -211 173 -451 370 -534
438 -83 68 -162 133 -176 145 -14 12 -73 60 -130 107 -58 46 -107 87 -110 90
-15 16 -73 60 -79 60 -5 0 -22 -17 -39 -37z"/>
<path d="M10188 15092 c-2 -4 -64 -59 -138 -121 -74 -62 -155 -130 -180 -151
-25 -21 -81 -68 -125 -105 -44 -37 -91 -77 -105 -88 -14 -12 -50 -42 -80 -67
-30 -25 -57 -47 -60 -50 -3 -3 -149 -127 -325 -274 -176 -148 -337 -283 -359
-301 -35 -30 -37 -34 -23 -51 76 -93 230 -274 233 -274 3 0 62 48 132 107 70
60 136 115 147 124 11 10 79 67 152 128 72 61 136 111 141 111 6 0 52 -49 102
-110 50 -60 95 -110 99 -110 5 0 19 10 33 23 14 12 36 30 49 41 22 17 130 108
155 131 8 6 -7 31 -50 80 -34 39 -78 91 -98 116 l-38 44 33 30 c18 17 55 49
82 71 28 23 88 74 134 113 47 39 88 68 91 64 4 -5 44 -53 90 -108 46 -55 101
-122 124 -148 l41 -48 18 23 c10 13 28 34 40 48 12 14 49 59 82 100 33 41 66
81 73 89 12 13 8 25 -18 51 -4 4 -55 65 -172 205 -9 11 -28 34 -42 50 -14 17
-68 80 -118 142 -90 108 -113 130 -120 115z"/>
<path d="M10262 13622 l-662 -657 133 -133 133 -133 410 406 c225 223 522 519
660 656 l251 250 -131 134 -131 134 -663 -657z"/>
<path d="M26613 14239 c-67 -12 -96 -32 -230 -162 -267 -256 -309 -301 -326
-350 -27 -79 -8 -160 51 -225 17 -19 118 -124 225 -235 107 -111 229 -238 272
-282 550 -571 542 -564 641 -566 94 -2 135 28 459 346 135 132 164 205 124
310 -22 58 -25 62 -309 355 -118 122 -235 244 -260 270 -212 224 -479 494
-504 509 -45 28 -96 38 -143 30z m107 -526 c56 -60 197 -206 312 -325 348
-360 397 -413 398 -423 0 -11 -128 -135 -140 -135 -10 0 -186 180 -560 570
-39 41 -113 118 -164 170 -51 52 -96 101 -100 108 -9 14 115 142 138 142 7 0
59 -48 116 -107z"/>
<path d="M11325 13645 c-76 -52 -142 -98 -147 -103 -5 -5 10 -24 34 -44 24
-20 61 -52 83 -71 22 -20 43 -37 48 -37 24 -1 -6 -39 -328 -415 -23 -27 -59
-70 -80 -95 -20 -25 -56 -67 -80 -95 -105 -121 -414 -485 -444 -523 l-33 -42
33 -27 c19 -16 82 -70 142 -120 60 -51 112 -93 117 -93 4 0 19 15 34 34 14 19
31 40 38 48 7 7 63 72 123 143 60 72 112 132 115 135 3 3 39 46 79 95 41 50
80 95 85 100 6 6 31 35 56 65 25 30 47 57 50 60 3 3 82 95 175 205 93 110 180
211 192 225 13 14 23 29 23 34 0 8 54 -33 120 -91 58 -50 73 -63 77 -63 2 0
16 29 32 63 16 35 50 106 75 157 25 52 46 97 46 100 0 4 -53 51 -117 105 -65
55 -120 102 -123 105 -6 6 -246 208 -271 227 -13 10 -38 -4 -154 -82z"/>
<path d="M25545 13339 c-77 -60 -141 -114 -143 -118 -2 -5 3 -15 10 -22 7 -8
117 -144 243 -302 127 -159 237 -297 245 -307 8 -10 27 -33 42 -51 383 -482
613 -764 622 -763 11 1 279 212 283 223 2 5 -225 293 -378 481 -16 19 -60 75
-99 124 -38 48 -83 105 -100 125 -16 20 -151 189 -300 376 -150 187 -275 341
-279 343 -3 1 -69 -48 -146 -109z"/>
<path d="M12151 12887 c-67 -100 -186 -276 -264 -392 -540 -796 -656 -969
-654 -971 1 -1 66 -44 144 -96 l142 -96 122 182 c68 99 162 238 209 307 47 70
86 126 88 124 2 -2 -10 -38 -26 -81 -17 -44 -60 -164 -97 -269 -37 -104 -82
-231 -100 -282 l-33 -91 159 -108 c87 -59 160 -106 162 -103 3 2 42 60 89 129
46 69 145 215 220 325 770 1137 731 1077 711 1095 -41 40 -295 202 -303 194
-5 -5 -39 -55 -77 -110 -265 -394 -318 -472 -320 -470 -2 2 15 50 97 276 136
374 149 415 137 426 -11 10 -247 172 -273 187 -6 4 -61 -69 -133 -176z"/>
<path d="M24805 12799 c-154 -104 -281 -194 -283 -199 -3 -8 92 -310 105 -332
2 -4 50 23 106 61 l102 68 215 -320 c118 -177 308 -459 421 -629 l206 -307
144 95 c79 53 150 102 158 109 11 11 -44 98 -320 511 -183 275 -337 501 -341
502 -4 2 -8 8 -8 13 0 5 -34 58 -75 118 -41 61 -75 113 -75 118 0 4 45 38 100
74 l99 67 -42 38 c-45 42 -192 170 -217 190 -12 10 -65 -22 -295 -177z"/>
<path d="M24166 12402 c-4 -6 -19 -17 -34 -25 -103 -52 -272 -150 -272 -158 0
-5 20 -44 44 -87 24 -42 91 -162 148 -267 58 -104 117 -210 130 -235 54 -96
232 -418 261 -470 17 -30 49 -89 72 -130 23 -41 57 -102 75 -135 18 -33 42
-76 53 -95 11 -19 40 -72 64 -117 25 -46 48 -83 52 -83 6 0 311 167 320 175 1
2 -3 16 -11 32 -23 44 -90 167 -98 178 -4 6 -21 35 -37 65 -55 100 -95 173
-188 340 -51 91 -109 197 -130 235 -21 39 -46 84 -55 100 -10 17 -29 50 -42
75 -14 25 -34 61 -45 80 -11 19 -79 143 -152 275 -73 132 -137 244 -141 248
-4 5 -11 4 -14 -1z"/>
<path d="M13276 12297 c-49 -93 -116 -221 -189 -357 -22 -41 -44 -82 -48 -90
-30 -55 -279 -530 -339 -645 -40 -77 -76 -144 -80 -150 -32 -44 -160 -308
-154 -314 5 -5 59 -34 119 -66 61 -32 142 -74 180 -95 39 -21 120 -63 180 -95
61 -32 116 -62 123 -68 7 -5 14 -8 15 -6 2 2 41 51 88 109 124 154 135 170
118 181 -8 5 -17 9 -20 9 -3 0 -62 30 -130 68 -69 37 -137 73 -152 81 l-27 14
62 116 c33 64 75 144 93 177 l32 62 129 -69 c71 -37 134 -68 139 -68 9 -1 160
280 153 283 -7 3 -119 61 -190 98 -73 39 -76 42 -67 66 6 15 14 31 18 37 5 5
41 73 81 150 40 77 78 148 85 157 12 19 11 20 258 -113 69 -37 110 -53 112
-46 24 73 68 215 70 227 2 8 10 34 18 58 l15 43 -31 16 c-17 8 -45 23 -61 33
-17 9 -65 34 -106 55 -41 21 -83 45 -92 53 -10 8 -18 12 -18 7 0 -4 -6 -3 -12
2 -7 6 -71 41 -143 78 -71 37 -134 71 -140 75 -35 24 -42 18 -89 -73z"/>
<path d="M23390 11983 c-18 -3 -701 -296 -718 -308 -1 -1 43 -105 99 -231 55
-126 163 -371 239 -544 76 -173 156 -355 178 -405 22 -49 79 -180 127 -290 48
-110 91 -208 96 -217 8 -15 14 -15 66 6 79 32 266 117 276 125 6 6 -146 367
-212 502 -17 36 -17 37 3 49 21 13 23 11 105 -86 14 -16 54 -63 89 -104 35
-41 74 -86 86 -100 11 -14 48 -57 81 -95 32 -39 60 -71 61 -73 1 -2 10 1 21 7
10 5 89 40 175 78 87 37 158 70 158 73 0 3 -15 21 -33 40 -17 19 -70 78 -117
130 -47 52 -99 111 -117 130 -17 19 -56 62 -86 95 l-56 60 39 35 c37 34 60 81
60 122 0 19 -39 122 -78 210 -11 23 -84 187 -161 363 -77 175 -154 335 -169
355 -50 63 -123 88 -212 73z m-25 -428 c42 -87 225 -509 225 -520 0 -19 -183
-97 -192 -82 -14 26 -248 560 -248 567 0 5 12 13 28 19 15 6 52 22 82 35 30
13 62 24 70 23 8 -1 24 -20 35 -42z"/>
<path d="M14335 11807 c-47 -22 -98 -86 -130 -162 -16 -39 -32 -74 -37 -79 -4
-6 -8 -16 -8 -24 0 -7 -8 -32 -19 -55 -10 -23 -56 -136 -101 -252 -134 -338
-128 -356 140 -466 106 -43 136 -60 138 -76 2 -11 -20 -78 -49 -149 -79 -198
-92 -224 -106 -224 -7 0 -97 34 -200 75 -103 41 -190 75 -194 75 -5 0 -25 -83
-45 -195 -4 -22 -8 -44 -9 -50 -2 -5 -6 -30 -10 -55 l-7 -46 219 -87 c287
-114 300 -118 354 -118 86 0 150 43 194 131 12 25 59 137 104 250 45 113 88
219 95 235 42 95 77 202 78 240 1 86 -36 119 -216 190 -77 31 -146 63 -153 72
-11 15 0 58 37 138 5 11 28 68 50 127 30 75 48 108 61 111 17 5 349 -122 401
-153 17 -10 23 -1 32 47 2 10 16 80 32 155 15 76 26 140 23 142 -2 2 -119 50
-259 106 -211 85 -266 103 -320 106 -42 3 -76 0 -95 -9z"/>
<path d="M22309 11545 c-3 -2 -70 -25 -150 -49 -79 -25 -202 -63 -274 -86 -71
-23 -137 -43 -145 -45 -8 -2 -28 -8 -43 -14 l-28 -11 4 -176 c3 -96 7 -177 9
-179 2 -2 53 11 113 30 61 19 113 35 117 35 3 0 23 -53 43 -117 43 -140 125
-399 191 -608 27 -82 49 -154 50 -160 2 -5 28 -89 59 -185 30 -96 57 -182 59
-190 24 -93 59 -181 71 -176 7 2 87 28 176 56 90 28 165 53 168 55 4 5 -9 54
-64 225 -20 63 -38 120 -39 125 -2 6 -6 17 -9 25 -8 22 -89 283 -91 295 -1 6
-26 83 -54 173 -29 89 -75 235 -103 325 -28 89 -59 187 -69 218 l-18 57 119
38 118 39 -95 150 c-90 144 -104 162 -115 150z"/>
<path d="M15475 11418 c-85 -18 -135 -79 -169 -203 -10 -33 -26 -89 -37 -125
-73 -246 -140 -502 -141 -542 -1 -86 50 -139 172 -173 166 -48 218 -66 223
-79 7 -17 -91 -366 -107 -383 -9 -10 -49 -2 -186 38 -219 64 -240 67 -241 43
-1 -11 -2 -30 -4 -44 -2 -21 -9 -116 -20 -257 l-3 -31 112 -32 c220 -62 262
-74 346 -95 133 -34 208 -21 265 47 37 44 50 75 102 258 136 471 151 530 148
572 -8 92 -56 125 -270 183 -117 32 -135 40 -135 61 0 9 21 91 47 183 43 154
65 207 83 196 3 -2 17 -6 31 -9 13 -2 104 -27 202 -55 98 -28 182 -49 186 -46
7 4 13 61 36 317 3 32 29 22 -325 122 -214 60 -255 67 -315 54z"/>
<path d="M21227 11230 c-43 -9 -79 -17 -80 -17 -68 -8 -200 -39 -203 -48 -3
-6 15 -112 40 -236 25 -123 47 -235 49 -249 12 -65 47 -247 51 -265 7 -31 66
-326 71 -357 3 -15 15 -74 26 -130 11 -57 23 -116 26 -133 2 -16 8 -48 13 -70
7 -28 6 -43 -3 -52 -19 -19 -165 -43 -176 -29 -5 6 -23 81 -40 166 -68 341
-132 666 -136 690 -2 14 -9 50 -15 80 -6 30 -13 66 -16 80 -2 14 -7 36 -10 50
-3 14 -8 36 -10 50 -3 14 -15 79 -29 145 -13 66 -27 136 -30 155 -13 80 -8 77
-114 55 -39 -8 -83 -17 -98 -20 -16 -3 -39 -7 -53 -10 -14 -2 -38 -7 -55 -11
-16 -3 -38 -8 -49 -11 -23 -6 -25 12 50 -363 24 -124 47 -241 50 -260 3 -19 9
-51 14 -70 5 -19 12 -51 15 -70 3 -19 24 -125 46 -235 22 -110 51 -256 64
-325 13 -69 27 -136 30 -150 3 -14 9 -49 15 -78 34 -185 133 -257 311 -227 42
7 125 22 159 30 48 10 135 26 165 31 70 11 192 47 220 64 73 45 105 112 100
211 -2 30 -24 159 -49 285 -60 300 -124 621 -130 659 -6 33 -7 35 -37 185 -11
58 -23 116 -25 130 -3 14 -19 95 -36 180 -17 85 -31 160 -32 167 -3 21 -8 21
-89 3z"/>
<path d="M17365 11016 c-162 -39 -248 -154 -247 -331 1 -80 9 -109 61 -234 17
-41 31 -75 31 -77 0 -2 -18 -4 -40 -4 -56 0 -141 -34 -178 -72 -46 -49 -69
-111 -77 -208 -3 -47 -8 -92 -10 -100 -2 -8 -7 -49 -11 -90 -3 -41 -8 -86 -9
-100 -1 -14 -6 -59 -10 -101 -4 -42 -10 -101 -14 -130 -15 -127 14 -255 72
-309 70 -67 237 -105 447 -103 83 1 168 26 231 68 l38 24 11 -34 c20 -61 70
-88 185 -100 28 -3 70 -7 95 -10 25 -2 71 -7 104 -11 l59 -6 -7 83 c-4 46 -9
100 -12 119 -2 19 -6 59 -8 88 -6 70 -4 68 -78 71 -74 2 -77 12 -31 78 78 112
155 279 188 408 23 89 21 95 -22 96 -21 1 -47 3 -58 4 -11 1 -56 6 -100 10
-44 4 -84 8 -89 9 -5 0 -17 -30 -26 -69 -17 -73 -55 -171 -74 -192 -9 -10 -27
32 -73 167 -34 99 -59 180 -55 181 4 0 35 2 69 4 81 4 127 20 185 62 96 70
145 242 141 498 -2 170 -79 251 -284 296 -112 25 -328 33 -404 15z m337 -286
c34 -16 41 -37 39 -112 -4 -184 -41 -253 -133 -246 l-41 3 -34 95 c-73 203
-75 219 -38 256 25 25 30 26 103 21 42 -2 89 -10 104 -17z m-348 -763 c26 -78
54 -155 61 -172 8 -16 24 -59 36 -95 12 -36 27 -71 32 -77 5 -7 7 -13 4 -13
-3 0 1 -16 9 -35 18 -44 8 -66 -42 -90 -29 -14 -51 -16 -111 -10 -42 4 -86 11
-99 17 -24 11 -37 48 -30 83 2 11 7 54 11 95 3 41 8 86 10 100 2 14 6 54 10
90 18 194 30 250 54 250 3 0 28 -64 55 -143z"/>
<path d="M19917 11003 c-1 0 -45 -4 -97 -8 -81 -6 -120 -10 -151 -14 -3 -1 -5
-12 -3 -26 1 -14 5 -63 9 -108 3 -45 8 -102 10 -127 2 -25 6 -81 9 -125 14
-179 17 -222 22 -262 3 -26 0 -43 -6 -43 -5 0 -9 3 -8 8 0 4 -2 14 -5 22 -7
19 -217 642 -217 645 0 2 -21 2 -47 0 -126 -9 -238 -18 -252 -20 -9 -2 -26 -4
-38 -4 -20 -1 -21 -5 -17 -53 7 -97 14 -182 19 -243 3 -33 7 -89 10 -125 2
-36 7 -94 10 -130 2 -36 7 -94 10 -130 2 -36 7 -90 9 -120 7 -80 18 -231 31
-405 3 -44 7 -105 10 -135 3 -30 7 -86 10 -125 3 -38 7 -92 10 -120 2 -27 7
-90 10 -140 7 -99 14 -137 24 -131 3 2 51 7 106 11 55 4 116 8 135 10 19 1 48
3 63 4 l29 1 -7 83 c-3 45 -8 100 -10 122 -2 22 -7 81 -10 130 -3 50 -8 108
-10 130 -2 22 -7 81 -10 130 -3 50 -7 102 -10 115 -13 74 31 -40 135 -350
l115 -342 105 7 c58 4 119 8 135 10 17 2 56 5 88 6 l59 2 -7 86 c-3 47 -8 104
-10 126 -2 22 -7 82 -10 132 -3 51 -8 107 -10 125 -2 18 -6 78 -10 133 -3 55
-8 116 -10 135 -2 19 -6 76 -10 125 -3 50 -8 106 -10 125 -2 19 -7 80 -10 135
-4 55 -8 114 -10 130 -2 17 -7 73 -10 125 -4 52 -8 111 -10 130 -2 19 -6 80
-10 135 -4 55 -8 109 -10 120 -1 11 -3 37 -4 58 l-1 38 -66 -3 c-36 -2 -66 -4
-67 -5z"/>
<path d="M5077 5473 c-1 -1 -36 -3 -76 -4 -372 -12 -674 -199 -844 -524 -20
-39 -97 -268 -123 -365 -4 -15 -23 -81 -89 -300 -91 -303 -46 -507 155 -707
121 -121 300 -214 459 -239 18 -3 43 -8 55 -12 11 -3 426 -7 921 -8 609 -2
908 -7 925 -14 25 -10 58 -54 58 -75 0 -5 -5 -21 -10 -35 -5 -14 -11 -33 -13
-43 -4 -19 -41 -142 -74 -244 -27 -85 -37 -100 -72 -119 -28 -14 -173 -16
-1455 -16 -1056 0 -1426 -3 -1433 -12 -5 -6 -22 -58 -39 -116 -17 -58 -42
-143 -57 -190 -14 -47 -28 -92 -30 -100 -1 -8 -12 -46 -24 -85 -17 -60 -38
-135 -47 -170 -1 -5 -12 -37 -23 -69 -12 -33 -21 -63 -21 -68 0 -4 748 -8
1663 -8 1778 1 1742 0 1895 51 222 73 410 215 513 389 26 44 57 121 81 198 22
70 55 179 75 242 131 424 141 466 141 573 0 183 -69 331 -223 475 -127 120
-233 173 -460 229 -16 4 -424 8 -905 10 -481 1 -895 5 -919 9 -51 7 -101 51
-101 89 0 13 20 89 45 171 25 81 45 152 45 157 0 26 36 79 67 98 l35 22 1429
0 c803 0 1430 3 1430 8 1 5 2 12 3 17 3 12 133 413 195 602 32 96 57 177 55
179 -3 3 -3204 8 -3207 4z"/>
<path d="M9678 5472 c-10 -2 -25 -34 -41 -85 -74 -234 -203 -660 -212 -697
l-6 -25 724 2 725 2 -8 -32 c-10 -37 -37 -139 -149 -557 -46 -168 -116 -429
-156 -580 -40 -151 -117 -437 -170 -635 -54 -198 -99 -367 -101 -375 -2 -8
-35 -132 -73 -275 -39 -143 -71 -261 -71 -263 0 -1 235 -1 523 0 l522 3 11 45
c7 25 31 115 53 200 23 85 44 162 46 171 2 9 26 103 55 210 28 107 53 202 55
211 2 10 29 113 60 230 32 117 65 245 75 283 43 166 98 375 197 745 57 217
106 403 108 413 2 10 14 52 25 95 12 42 23 84 24 92 3 13 89 15 710 15 l707 0
10 40 c6 22 42 141 81 265 38 124 71 232 73 240 2 8 20 68 41 133 20 65 34
120 31 123 -5 6 -3841 11 -3869 6z"/>
<path d="M14597 5472 c-13 -3 -7 -18 32 -80 27 -42 176 -277 331 -522 156
-245 336 -528 400 -630 65 -102 187 -295 272 -429 l155 -244 -14 -46 c-8 -25
-43 -145 -79 -266 -36 -121 -81 -272 -100 -335 -19 -63 -37 -126 -40 -139 -3
-14 -7 -28 -10 -33 -3 -5 -16 -45 -29 -91 -13 -45 -41 -143 -63 -217 -100
-335 -142 -479 -142 -484 0 -4 249 -6 554 -6 l554 0 20 67 c11 38 102 349 202
693 100 344 193 662 206 707 l26 82 110 103 c158 147 153 142 283 263 65 61
130 121 145 135 14 14 80 75 145 135 66 61 126 117 135 125 9 8 47 44 86 79
38 35 123 115 189 176 66 62 134 125 150 140 33 30 206 190 265 245 21 19 84
78 140 130 57 52 115 106 130 120 36 35 234 218 295 274 l50 46 -85 1 c-47 0
-345 1 -662 1 l-577 0 -36 -34 c-21 -18 -47 -42 -59 -53 -67 -60 -213 -193
-235 -214 -14 -12 -55 -49 -91 -81 -36 -32 -77 -69 -91 -81 -14 -13 -68 -62
-120 -109 -51 -47 -123 -112 -159 -144 -36 -33 -88 -80 -116 -105 -165 -150
-240 -218 -256 -234 -10 -10 -22 -16 -26 -13 -7 4 -141 214 -212 331 -8 13
-55 89 -105 167 -49 78 -115 182 -145 230 -228 365 -208 338 -248 338 -314 3
-1163 4 -1175 2z"/>
<path d="M20946 5473 c-1 -1 -34 -3 -74 -4 -63 -2 -134 -12 -246 -34 -55 -11
-177 -63 -249 -106 -133 -80 -273 -241 -343 -392 -13 -30 -83 -253 -154 -498
-72 -244 -135 -457 -141 -474 -12 -38 -114 -388 -140 -480 -11 -38 -31 -106
-44 -150 -46 -150 -267 -900 -274 -930 -4 -16 -13 -46 -20 -65 -13 -41 -111
-376 -111 -381 0 -10 1079 -3 1088 6 4 6 16 37 25 70 22 76 26 89 93 325 30
107 57 202 59 210 3 8 11 38 19 65 9 28 29 97 45 155 16 58 42 149 57 203 l28
97 341 0 c341 0 342 0 362 -22 11 -13 136 -178 279 -368 142 -190 261 -347
264 -350 3 -3 72 -94 153 -202 l148 -198 585 0 585 0 -28 38 c-15 20 -30 39
-34 42 -3 3 -23 30 -45 60 -21 30 -197 264 -389 520 -193 256 -351 468 -353
472 -2 3 124 8 280 11 156 2 293 6 304 10 12 3 37 8 55 11 177 28 398 150 527
292 47 51 125 170 127 194 0 3 4 11 8 17 5 7 10 21 12 30 2 10 25 92 50 183
235 836 226 798 226 912 0 196 -107 383 -306 535 -78 60 -250 142 -327 157
-13 2 -43 9 -69 15 -25 5 -81 13 -125 17 -67 5 -2242 12 -2248 7z m1914 -823
c46 -25 70 -61 64 -98 -2 -12 -42 -148 -88 -303 -89 -299 -100 -322 -162 -334
-39 -7 -1853 -9 -1861 -2 -2 3 11 60 30 128 19 68 61 220 93 338 62 229 74
253 137 275 53 18 1753 15 1787 -4z"/>
<path d="M26417 5474 c-1 -1 -47 -4 -102 -8 -296 -18 -535 -143 -703 -368 -91
-121 -120 -185 -188 -415 -35 -120 -75 -254 -89 -298 -36 -115 -243 -808 -265
-885 -17 -61 -110 -375 -165 -555 -14 -44 -45 -150 -70 -235 -25 -85 -59 -198
-76 -250 -16 -53 -31 -105 -34 -115 -2 -11 -16 -58 -30 -105 -24 -75 -85 -283
-85 -286 0 -1 235 -1 522 0 l521 1 23 70 c20 64 145 485 240 812 22 73 43 133
47 133 4 0 40 -28 80 -62 93 -79 349 -296 466 -393 13 -11 44 -37 70 -59 57
-48 96 -81 141 -120 20 -17 57 -49 84 -71 27 -22 121 -102 210 -177 l161 -137
738 -1 c405 0 737 2 737 4 0 2 -156 138 -347 302 -192 164 -350 301 -353 304
-3 3 -41 36 -85 74 -44 38 -105 90 -135 116 -30 26 -158 136 -285 244 -126
109 -241 207 -255 219 -14 12 -55 47 -90 77 -36 30 -69 60 -75 66 -5 6 -37 33
-70 60 -33 27 -62 51 -65 54 -3 3 -39 35 -80 70 -41 35 -80 69 -87 75 -8 9 75
73 340 261 193 137 371 264 396 282 25 18 116 83 201 143 396 281 686 487 730
519 26 19 56 41 67 48 10 7 187 133 394 280 207 147 393 279 415 295 l39 27
-120 1 c-66 0 -398 1 -738 1 l-617 0 -78 -54 c-43 -29 -125 -86 -182 -126
-272 -190 -1118 -779 -1144 -796 -28 -18 -29 -18 -24 0 3 11 22 73 41 139 20
66 56 191 82 278 25 87 72 246 105 355 32 108 57 198 55 200 -3 3 -264 9 -268
6z"/>
<path d="M31216 5473 c-1 -1 -35 -3 -76 -4 -65 -2 -139 -12 -243 -34 -48 -10
-159 -54 -217 -87 -155 -87 -282 -223 -370 -398 -13 -25 -79 -234 -147 -465
-68 -231 -132 -449 -143 -485 -10 -36 -42 -144 -70 -240 -28 -96 -62 -211 -75
-255 -13 -44 -37 -125 -54 -180 -16 -55 -80 -271 -141 -480 -61 -209 -116
-393 -121 -410 -15 -49 -139 -472 -139 -476 0 -2 245 -4 545 -4 l546 0 14 50
c8 27 35 124 60 215 41 145 149 523 174 605 5 17 24 83 43 148 l33 117 341 0
341 0 24 -28 c13 -15 112 -144 219 -287 107 -143 198 -264 202 -270 28 -36
105 -138 252 -332 l167 -223 586 0 c467 0 583 3 575 13 -5 6 -89 118 -187 247
-97 129 -185 246 -195 260 -317 422 -460 614 -457 616 2 2 118 4 258 4 139 1
274 5 299 10 25 4 61 11 80 14 155 24 366 132 488 250 131 126 163 194 267
571 211 762 195 697 196 805 0 198 -102 377 -311 543 -34 26 -224 126 -251
131 -8 1 -34 8 -58 15 -81 23 -192 38 -295 41 -127 2 -2157 6 -2160 3z m1922
-827 c34 -17 63 -67 57 -96 -11 -56 -169 -569 -181 -587 -36 -56 4 -54 -1005
-56 l-931 -2 6 25 c3 14 17 66 30 115 14 50 53 194 87 320 54 199 67 234 92
257 16 16 42 31 59 36 16 4 417 7 891 7 804 -1 864 -2 895 -19z"/>
</g>
</svg>
